<?xml version="1.0" standalone="no"?>
<!DOCTYPE svg PUBLIC "-//W3C//DTD SVG 20010904//EN"
 "http://www.w3.org/TR/2001/REC-SVG-20010904/DTD/svg10.dtd">
<svg version="1.0" xmlns="http://www.w3.org/2000/svg"
 width="200.000000pt" height="200.000000pt" viewBox="0 0 200.000000 200.000000"
 preserveAspectRatio="xMidYMid meet">
<metadata>
Created by potrace 1.11, written by Peter Selinger 2001-2013
</metadata>
<g transform="translate(0.000000,200.000000) scale(0.100000,-0.100000)"
fill="#000000" stroke="none">
<path d="M900 1869 c-169 -53 -165 -51 -168 -87 -2 -18 -7 -32 -11 -32 -5 0
-11 -9 -14 -19 -3 -14 -11 -18 -26 -14 -16 4 -21 1 -22 -13 -4 -62 24 -145 42
-127 7 7 7 22 0 49 -15 53 -14 56 12 48 12 -4 65 -8 118 -9 80 -1 101 -5 132
-24 l36 -22 43 22 c35 19 61 23 138 24 52 1 106 5 119 9 23 8 24 7 18 -27 -4
-25 -1 -37 8 -41 15 -5 23 11 29 61 5 48 -2 52 -68 39 -32 -7 -72 -10 -87 -8
-25 4 -29 9 -29 38 0 21 5 34 13 34 30 0 87 22 87 34 0 8 -53 29 -133 54 -73
23 -135 42 -138 41 -2 0 -47 -14 -99 -30z m254 -50 l41 -11 -30 -12 c-22 -9
-46 -10 -95 -2 -74 12 -73 12 -157 2 -34 -4 -72 -4 -85 0 -19 6 -5 13 77 39
l100 32 55 -19 c30 -10 72 -23 94 -29z m-349 -49 c21 -8 26 -16 23 -37 -3 -28
-28 -45 -28 -19 0 9 -9 25 -19 35 -11 11 -17 22 -13 25 7 8 6 8 37 -4z m313
-19 c36 -19 28 -47 -15 -55 -21 -3 -51 -13 -67 -21 -28 -15 -33 -14 -77 5 -26
11 -59 20 -73 20 -21 0 -26 5 -26 25 0 19 7 26 28 31 15 3 32 7 37 9 24 8 172
-3 193 -14z m-350 -39 c2 -7 -5 -12 -17 -12 -14 0 -19 5 -14 15 6 17 25 15 31
-3z"/>
<path d="M1175 1604 c-48 -16 -74 -40 -96 -89 -28 -63 -11 -142 40 -183 48
-38 123 -48 173 -21 11 6 22 9 24 6 9 -9 11 -114 2 -147 -9 -31 -11 -33 -20
-15 -31 59 -139 135 -192 135 -12 0 -16 5 -12 15 5 14 -55 85 -72 85 -16 0
-65 -60 -66 -80 -1 -17 -13 -27 -49 -40 -66 -25 -112 -62 -144 -117 l-27 -46
-12 34 c-7 19 -13 64 -13 102 -1 52 -4 67 -16 67 -8 0 -15 -6 -16 -12 -11
-129 24 -233 104 -308 23 -22 47 -55 53 -73 12 -36 41 -45 36 -11 -3 22 -2 22
40 7 54 -20 160 -19 216 1 l42 15 -6 -23 c-6 -27 9 -42 23 -23 6 6 13 25 17
42 4 16 25 44 46 63 48 40 98 139 106 207 3 28 2 73 -3 101 -8 42 -7 56 9 85
65 121 -57 268 -187 223z m106 -39 c36 -19 69 -70 69 -108 0 -66 -58 -127
-122 -127 -107 0 -166 108 -106 195 36 53 101 69 159 40z m-238 -276 l-17 -28
-18 26 c-16 25 -16 29 -1 45 15 17 18 17 34 2 18 -16 18 -18 2 -45z m145 -65
c23 -14 54 -43 68 -64 17 -26 31 -37 41 -33 13 5 13 1 -2 -26 -86 -168 -302
-222 -458 -114 -21 15 -47 39 -58 55 -20 27 -20 28 -1 70 21 49 76 101 130
123 58 25 74 24 98 -4 l22 -26 18 31 c17 30 19 31 58 22 23 -5 60 -20 84 -34z"/>
<path d="M1163 1540 c-13 -5 -23 -17 -23 -26 0 -12 6 -15 23 -10 51 15 60 14
83 -9 29 -29 30 -54 4 -83 -37 -39 -88 -23 -107 33 -12 36 -27 36 -31 0 -2
-17 6 -34 27 -55 41 -42 91 -41 133 0 27 27 30 36 25 72 -3 22 -14 49 -24 60
-23 22 -79 32 -110 18z"/>
<path d="M1200 1500 c-13 -8 -11 -12 7 -30 12 -11 27 -20 33 -20 15 0 12 26
-6 44 -18 19 -15 18 -34 6z"/>
<path d="M760 1587 c-48 -31 -73 -80 -73 -138 0 -149 197 -209 285 -87 31 44
33 140 3 179 -54 71 -148 92 -215 46z m159 -35 c33 -24 57 -89 47 -127 -4 -15
-22 -43 -41 -62 -27 -27 -41 -33 -74 -33 -54 0 -97 22 -117 62 -48 92 20 196
120 184 22 -2 51 -13 65 -24z"/>
<path d="M784 1541 c-28 -12 -39 -30 -26 -43 7 -7 18 -5 33 5 30 19 59 14 81
-14 24 -29 23 -54 -4 -79 -40 -37 -90 -19 -104 36 -8 29 -28 27 -32 -4 -2 -14
8 -33 27 -52 41 -42 91 -41 133 0 27 27 30 36 25 72 -3 22 -14 49 -24 60 -22
22 -79 32 -109 19z"/>
<path d="M818 1488 c-3 -7 5 -21 18 -30 28 -23 34 -22 34 0 0 33 -43 58 -52
30z"/>
<path d="M735 960 c-8 -12 21 -80 34 -80 14 0 14 19 0 59 -11 31 -23 39 -34
21z"/>
<path d="M785 961 c-9 -16 15 -83 28 -78 7 2 11 17 9 33 -4 34 -26 62 -37 45z"/>
<path d="M1220 934 c-13 -32 -13 -51 0 -59 11 -7 30 35 30 66 0 27 -19 24 -30
-7z"/>
<path d="M1277 953 c-12 -21 -17 -72 -7 -78 12 -7 44 61 35 75 -7 12 -22 13
-28 3z"/>
<path d="M1378 775 c-20 -45 37 -80 73 -44 23 23 24 33 3 53 -24 25 -63 20
-76 -9z"/>
<path d="M1529 758 c-3 -75 -4 -315 -1 -325 2 -7 19 -13 38 -13 25 0 34 4 35
18 1 20 1 324 0 335 -1 4 -17 7 -36 7 -29 0 -35 -4 -36 -22z"/>
<path d="M397 603 c1 -87 2 -164 2 -170 1 -19 188 -17 232 2 51 22 77 46 94
87 40 98 -10 202 -111 227 -24 6 -82 11 -131 11 l-88 0 2 -157z m181 88 c13
-1 36 -14 52 -31 23 -24 27 -37 25 -76 -2 -38 -8 -53 -29 -71 -15 -13 -37 -23
-49 -24 -12 -1 -39 -2 -59 -3 -28 -2 -38 2 -39 13 0 9 -2 54 -2 100 -2 90 5
101 57 95 11 -1 32 -3 44 -3z"/>
<path d="M865 674 c-22 -7 -41 -14 -42 -14 -1 0 -11 -14 -24 -31 -67 -94 1
-213 121 -212 44 1 61 6 99 31 23 16 -24 56 -49 42 -39 -21 -120 -1 -120 31 0
5 44 9 100 9 l100 0 -5 37 c-11 88 -94 137 -180 107z m93 -66 c29 -24 12 -36
-48 -35 -63 1 -67 4 -47 29 22 28 63 31 95 6z"/>
<path d="M1060 670 c0 -6 23 -65 52 -131 l52 -120 40 3 40 3 52 125 53 125
-25 3 c-42 6 -49 -2 -85 -88 l-33 -82 -17 39 c-10 21 -27 59 -38 86 -19 43
-24 47 -56 47 -19 0 -35 -5 -35 -10z"/>
<path d="M1380 550 l0 -130 39 0 38 0 0 130 0 130 -39 0 -38 0 0 -130z"/>
<path d="M740 206 l0 -106 55 0 c101 0 159 55 136 130 -17 58 -42 74 -122 78
l-69 4 0 -106z m137 69 c32 -22 43 -65 27 -103 -15 -36 -47 -52 -104 -52 l-40
0 1 85 1 85 47 0 c25 0 56 -7 68 -15z"/>
<path d="M1002 248 c-22 -11 -37 -46 -34 -83 2 -28 48 -65 81 -65 32 0 70 24
53 34 -6 3 -13 2 -17 -4 -16 -25 -95 2 -95 33 0 3 28 7 63 9 60 3 62 4 59 28
-5 49 -58 72 -110 48z m86 -35 c14 -23 14 -23 -42 -23 -58 0 -67 8 -40 35 22
22 63 15 82 -12z"/>
<path d="M1139 238 c28 -73 61 -138 71 -138 5 0 22 26 36 58 42 94 46 104 32
100 -6 -2 -24 -33 -39 -69 l-28 -64 -30 68 c-17 37 -36 67 -41 67 -6 0 -6 -9
-1 -22z"/>
</g>
</svg>
